<svg xmlns="http://www.w3.org/2000/svg" width="836" height="1254" viewBox="0 0 836 1254">
<g>
<path d="M 581.47 850.42 L 572.59 853.00 L 417.54 852.93 L 262.50 852.86 L 255.00 850.56 C244.68,847.39 240.57,845.50 232.88,840.40 C218.88,831.13 206.88,815.07 201.35,798.19 L 198.50 789.50 L 198.50 633.50 C198.50,483.47 198.57,477.29 200.38,472.00 C206.35,454.53 212.28,444.78 223.36,434.26 C235.40,422.83 246.46,417.23 264.21,413.58 C272.07,411.97 289.99,411.39 290.02,412.75 C290.06,414.85 294.06,432.04 295.34,435.61 L 296.81 439.72 L 283.66 440.28 C264.55,441.09 254.49,444.68 244.18,454.35 C236.98,461.11 231.67,469.42 228.87,478.30 C226.71,485.14 226.60,486.99 226.68,515.50 C226.72,532.00 226.81,551.01 226.88,557.75 L 227.00 570.00 L 611.17 570.00 L 610.75 527.75 C610.36,488.73 610.17,485.00 608.29,478.94 C605.74,470.74 604.35,468.05 598.64,460.29 C593.12,452.80 583.26,445.83 574.00,442.88 C569.40,441.42 563.63,440.65 554.25,440.27 C546.96,439.96 541.00,439.58 541.00,439.42 C541.00,439.26 541.49,437.86 542.10,436.32 C542.70,434.77 544.20,428.77 545.43,423.00 L 547.67 412.50 L 558.58 412.57 C571.84,412.65 581.56,414.76 592.63,419.95 C613.76,429.85 628.70,447.39 636.11,471.00 L 638.47 478.50 L 638.76 629.50 C639.06,779.33 639.05,780.58 636.98,790.50 C633.12,808.96 623.08,825.16 608.12,837.04 C599.99,843.49 592.64,847.19 581.47,850.42 ZM 267.90 823.47 C276.67,825.60 559.79,825.61 568.82,823.48 C587.40,819.10 602.20,805.79 608.26,788.00 C610.48,781.50 610.48,781.47 610.78,690.25 L 611.08 599.00 L 227.04 599.00 L 226.47 601.25 C226.16,602.49 226.05,643.55 226.22,692.50 C226.54,781.27 226.55,781.51 228.73,787.29 C232.53,797.34 236.16,802.90 243.45,809.82 C250.98,816.97 258.56,821.21 267.90,823.47 ZM 434.07 769.40 C404.94,774.35 377.41,766.11 357.42,746.46 C350.01,739.18 349.12,737.88 347.97,732.77 C346.43,725.88 347.52,722.51 352.78,717.89 C356.04,715.02 356.77,714.82 362.13,715.20 L 367.95 715.62 L 376.22 724.20 C388.73,737.16 402.01,742.94 419.36,742.98 C435.51,743.02 453.59,734.36 462.11,722.50 C463.96,719.92 466.70,717.17 468.19,716.40 C471.54,714.67 478.66,714.61 481.97,716.28 C488.15,719.40 490.82,728.89 487.60,736.28 C483.72,745.21 465.79,759.25 451.11,764.88 C446.92,766.48 439.26,768.52 434.07,769.40 ZM 495.45 686.30 C492.57,688.29 489.81,689.22 485.95,689.52 C479.16,690.04 475.57,688.95 470.62,684.85 C455.47,672.32 464.58,647.11 484.30,647.02 C499.69,646.95 509.22,663.92 501.98,678.49 C500.46,681.56 497.93,684.57 495.45,686.30 ZM 360.60 688.09 C343.97,695.65 326.34,677.48 333.55,660.22 C340.10,644.54 360.40,642.38 369.75,656.36 C372.57,660.59 373.00,662.07 373.00,667.65 C373.00,677.73 369.04,684.26 360.60,688.09 Z" fill="rgb(65,163,252)"/>
<path d="M 317.65 554.75 L 302.52 570.00 L 227.00 570.00 L 226.88 557.75 C226.85,555.50 226.83,551.87 226.80,547.43 L 227.20 550.67 L 255.85 521.22 C271.61,505.03 285.54,491.37 286.82,490.89 C292.10,488.86 299.56,490.31 303.67,494.16 L 305.84 496.20 L 316.17 485.49 C321.85,479.60 326.65,474.16 326.82,473.39 C327.00,472.62 325.50,470.08 323.49,467.75 C321.48,465.41 317.87,459.45 315.46,454.50 C298.54,419.64 300.72,377.43 321.19,343.92 C328.11,332.59 345.50,315.31 356.61,308.71 C385.74,291.41 415.02,286.99 446.88,295.08 C479.87,303.46 509.64,327.87 523.13,357.62 C530.92,374.80 533.56,389.52 532.71,410.95 C532.08,426.70 530.03,435.86 523.77,450.89 C514.82,472.39 494.32,493.84 471.69,505.38 C436.34,523.40 392.14,521.86 359.04,501.45 C355.06,499.00 351.60,497.00 351.35,497.00 C351.10,497.00 346.30,501.77 340.70,507.60 C330.98,517.70 328.57,521.00 330.90,521.00 C334.12,521.00 336.26,532.65 333.89,537.32 C333.28,538.52 325.98,546.36 317.65,554.75 ZM 404.50 482.42 C405.60,482.68 413.25,482.76 421.50,482.59 C434.66,482.32 437.48,481.95 444.50,479.59 C469.88,471.03 488.89,451.11 496.13,425.50 C499.15,414.82 499.37,396.94 496.61,386.00 C492.78,370.79 485.83,358.90 474.36,347.94 C465.67,339.63 460.25,335.95 450.22,331.54 C439.70,326.91 430.15,325.00 417.68,325.02 C381.94,325.07 350.60,349.84 341.86,384.94 C340.05,392.21 339.83,395.34 340.28,407.44 C340.89,423.54 342.31,429.14 349.13,442.16 C352.50,448.60 355.68,452.68 363.04,460.07 C371.52,468.58 373.75,470.20 383.04,474.69 C388.79,477.47 395.52,480.24 398.00,480.84 C400.48,481.44 403.40,482.15 404.50,482.42 Z" fill="rgb(254,209,36)"/>
<path d="M 0.00 627.00 L 0.00 0.00 L 418.00 0.00 L 836.00 0.00 L 836.00 627.00 L 836.00 1254.00 L 418.00 1254.00 L 0.00 1254.00 L 0.00 627.00 ZM 581.47 850.42 C592.64,847.19 599.99,843.49 608.12,837.04 C623.08,825.16 633.12,808.96 636.98,790.50 C639.05,780.58 639.06,779.33 638.76,629.50 L 638.47 478.50 L 636.11 471.00 C628.70,447.39 613.76,429.85 592.63,419.95 C581.56,414.76 571.84,412.65 558.58,412.57 L 547.67 412.50 L 545.43 423.00 C544.20,428.77 542.70,434.77 542.10,436.32 C541.49,437.86 541.00,439.26 541.00,439.42 C541.00,439.58 546.96,439.96 554.25,440.27 C563.63,440.65 569.40,441.42 574.00,442.88 C583.26,445.83 593.12,452.80 598.64,460.29 C604.35,468.05 605.74,470.74 608.29,478.94 C610.17,485.00 610.36,488.73 610.75,527.75 L 611.17 570.00 L 456.85 570.00 L 302.52 570.00 L 317.65 554.75 C325.98,546.36 333.28,538.52 333.89,537.32 C336.26,532.65 334.12,521.00 330.90,521.00 C328.57,521.00 330.98,517.70 340.70,507.60 C346.30,501.77 351.10,497.00 351.35,497.00 C351.60,497.00 355.06,499.00 359.04,501.45 C392.14,521.86 436.34,523.40 471.69,505.38 C494.32,493.84 514.82,472.39 523.77,450.89 C530.03,435.86 532.08,426.70 532.71,410.95 C533.56,389.52 530.92,374.80 523.13,357.62 C509.64,327.87 479.87,303.46 446.88,295.08 C415.02,286.99 385.74,291.41 356.61,308.71 C345.50,315.31 328.11,332.59 321.19,343.92 C300.72,377.43 298.54,419.64 315.46,454.50 C317.87,459.45 321.48,465.41 323.49,467.75 C325.50,470.08 327.00,472.62 326.82,473.39 C326.65,474.16 321.85,479.60 316.17,485.49 L 305.84 496.20 L 303.67 494.16 C299.56,490.31 292.10,488.86 286.82,490.89 C285.54,491.37 271.61,505.03 255.85,521.22 L 227.20 550.67 L 226.76 547.09 C226.52,545.11 226.38,530.45 226.45,514.50 C226.57,487.31 226.73,485.05 228.86,478.30 C231.67,469.41 236.98,461.10 244.18,454.35 C254.49,444.68 264.55,441.09 283.66,440.28 L 296.81 439.72 L 295.34 435.61 C294.06,432.04 290.06,414.85 290.02,412.75 C289.99,411.39 272.07,411.97 264.21,413.58 C246.46,417.23 235.40,422.83 223.36,434.26 C212.28,444.78 206.35,454.53 200.38,472.00 C198.57,477.29 198.50,483.47 198.50,633.50 L 198.50 789.50 L 201.35 798.19 C206.88,815.07 218.88,831.13 232.88,840.40 C240.57,845.50 244.68,847.39 255.00,850.56 L 262.50 852.86 L 417.54 852.93 L 572.59 853.00 L 581.47 850.42 ZM 267.90 823.47 C258.56,821.21 250.98,816.97 243.45,809.82 C236.16,802.90 232.53,797.34 228.73,787.29 C226.55,781.51 226.54,781.27 226.22,692.50 C226.05,643.55 226.16,602.49 226.47,601.25 L 227.04 599.00 L 419.06 599.00 L 611.08 599.00 L 610.78 690.25 C610.48,781.47 610.48,781.50 608.26,788.00 C602.20,805.79 587.40,819.10 568.82,823.48 C559.79,825.61 276.67,825.60 267.90,823.47 ZM 434.07 769.40 C439.26,768.52 446.92,766.48 451.11,764.88 C465.79,759.25 483.72,745.21 487.60,736.28 C490.82,728.89 488.15,719.40 481.97,716.28 C478.66,714.61 471.54,714.67 468.19,716.40 C466.70,717.17 463.96,719.92 462.11,722.50 C453.59,734.36 435.51,743.02 419.36,742.98 C402.01,742.94 388.73,737.16 376.22,724.20 L 367.95 715.62 L 362.13 715.20 C356.77,714.82 356.04,715.02 352.78,717.89 C347.52,722.51 346.43,725.88 347.97,732.77 C349.12,737.88 350.01,739.18 357.42,746.46 C377.41,766.11 404.94,774.35 434.07,769.40 ZM 360.60 688.09 C369.04,684.26 373.00,677.73 373.00,667.65 C373.00,662.07 372.57,660.59 369.75,656.36 C360.40,642.38 340.10,644.54 333.55,660.22 C326.34,677.48 343.97,695.65 360.60,688.09 ZM 495.45 686.30 C497.93,684.57 500.46,681.56 501.98,678.49 C509.22,663.92 499.69,646.95 484.30,647.02 C464.58,647.11 455.47,672.32 470.62,684.85 C475.57,688.95 479.16,690.04 485.95,689.52 C489.81,689.22 492.57,688.29 495.45,686.30 ZM 404.50 482.42 C403.40,482.15 400.48,481.44 398.00,480.84 C395.52,480.24 388.79,477.47 383.04,474.69 C373.75,470.20 371.52,468.58 363.04,460.07 C355.68,452.68 352.50,448.60 349.13,442.16 C342.31,429.14 340.89,423.54 340.28,407.44 C339.83,395.34 340.05,392.21 341.86,384.94 C350.60,349.84 381.94,325.07 417.68,325.02 C430.15,325.00 439.70,326.91 450.22,331.54 C460.25,335.95 465.67,339.63 474.36,347.94 C485.83,358.90 492.78,370.79 496.61,386.00 C499.37,396.94 499.15,414.82 496.13,425.50 C488.89,451.11 469.88,471.03 444.50,479.59 C437.48,481.95 434.66,482.32 421.50,482.59 C413.25,482.76 405.60,482.68 404.50,482.42 Z" fill="rgb(254,254,254)"/>
</g>
</svg>