<svg xmlns="http://www.w3.org/2000/svg" width="1254" height="836" viewBox="0 0 1254 836">
<g>
<path d="M 570.50 537.70 C561.20,541.64 553.70,541.41 544.73,536.89 C539.01,534.01 511.29,506.63 508.90,501.50 C506.41,496.14 506.48,487.75 509.06,482.06 C510.55,478.76 519.72,469.11 544.64,444.56 C563.10,426.38 579.73,410.70 581.59,409.73 C587.40,406.70 593.21,406.44 598.44,408.97 L 603.04 411.20 L 607.27 407.46 C609.60,405.40 611.87,403.39 612.32,402.99 C612.77,402.59 611.51,399.70 609.51,396.58 C604.37,388.54 598.42,373.05 596.43,362.50 C594.24,350.92 594.24,333.15 596.44,321.74 C603.99,282.53 631.97,249.97 670.63,235.41 C674.01,234.14 681.87,232.13 688.11,230.93 C698.00,229.04 701.72,228.83 716.98,229.29 C735.92,229.86 742.70,231.14 757.61,236.93 C793.66,250.95 821.93,284.82 829.85,323.51 C831.69,332.49 832.24,348.19 831.09,358.50 C826.23,401.85 796.10,439.36 754.68,453.64 C744.78,457.05 726.39,459.99 714.93,460.00 C692.98,460.00 666.39,452.26 651.45,441.50 C649.54,440.12 649.08,440.35 644.67,444.82 L 639.95 449.62 L 642.07 454.42 C644.48,459.86 644.16,465.72 641.22,470.11 C640.28,471.52 625.10,486.83 607.50,504.13 C581.68,529.50 574.53,535.99 570.50,537.70 ZM 701.00 416.90 C706.86,418.44 727.40,418.15 735.30,416.43 C739.26,415.57 747.22,412.56 753.00,409.74 C762.26,405.23 764.63,403.49 773.09,395.06 C781.25,386.92 783.38,384.09 787.38,376.00 C795.15,360.30 797.46,345.53 794.65,329.50 C791.05,308.90 778.05,288.34 764.00,281.01 C762.62,280.29 761.28,279.38 761.00,278.99 C759.66,277.08 739.45,268.78 732.00,267.08 C729.53,266.51 722.28,266.04 715.91,266.02 C694.78,265.98 678.66,272.05 664.23,285.50 C655.63,293.51 647.74,303.57 645.88,308.90 C645.29,310.61 644.37,312.00 643.84,312.00 C643.31,312.00 643.16,312.45 643.50,313.00 C643.84,313.55 643.61,314.00 643.00,314.00 C642.39,314.00 642.13,314.39 642.42,314.88 C642.88,315.62 641.23,321.93 639.24,327.00 C638.30,329.41 638.20,356.39 639.13,357.59 C639.60,358.19 640.16,359.99 640.39,361.59 C641.45,369.26 648.81,382.88 657.00,392.35 C660.58,396.49 663.80,399.90 664.18,399.94 C665.20,400.03 677.45,408.39 677.83,409.25 C678.02,409.66 678.93,410.00 679.86,410.00 C680.79,410.00 682.44,410.59 683.53,411.31 C685.29,412.49 690.46,414.15 701.00,416.90 Z" fill="rgb(53,143,254)"/>
<path d="M 701.00 416.90 C690.46,414.15 685.29,412.49 683.53,411.31 C682.44,410.59 680.79,410.00 679.86,410.00 C678.93,410.00 678.02,409.66 677.83,409.25 C677.45,408.39 665.20,400.03 664.18,399.94 C663.80,399.90 660.58,396.49 657.00,392.35 C648.81,382.88 641.45,369.26 640.39,361.59 C640.16,359.99 639.60,358.19 639.13,357.59 C638.20,356.39 638.30,329.41 639.24,327.00 C641.23,321.93 642.88,315.62 642.42,314.88 C642.13,314.39 642.39,314.00 643.00,314.00 C643.61,314.00 643.84,313.55 643.50,313.00 C643.16,312.45 643.31,312.00 643.84,312.00 C644.37,312.00 645.29,310.61 645.88,308.90 C647.74,303.57 655.63,293.51 664.23,285.50 C666.99,282.92 669.81,280.62 672.72,278.58 C674.34,278.50 678.36,277.07 681.35,275.38 C687.25,272.05 689.76,271.01 696.00,269.33 C702.09,267.69 721.74,267.09 732.00,268.22 L 738.02 268.88 C747.04,271.96 759.94,277.48 761.00,278.99 C761.28,279.38 762.62,280.29 764.00,281.01 C778.05,288.34 791.05,308.90 794.65,329.50 C797.46,345.53 795.15,360.30 787.38,376.00 C783.38,384.09 781.25,386.92 773.09,395.06 C764.63,403.49 762.26,405.23 753.00,409.74 C747.22,412.56 739.26,415.57 735.30,416.43 C727.40,418.15 706.86,418.44 701.00,416.90 ZM 695.41 268.28 C691.54,269.39 685.36,271.77 680.32,273.94 C685.07,271.46 690.07,269.58 695.41,268.28 ZM 736.74 268.45 L 733.50 267.56 C731.25,266.94 728.06,266.52 724.44,266.28 C727.79,266.48 730.63,266.76 732.00,267.08 C733.26,267.37 734.90,267.85 736.74,268.45 ZM 719.95 266.09 C714.33,265.96 708.20,266.22 703.05,266.84 C707.13,266.28 711.40,266.01 715.91,266.02 C717.24,266.03 718.60,266.05 719.95,266.09 Z" fill="rgb(253,247,197)"/>
<path d="M 814.00 640.18 L 804.50 643.50 L 456.50 643.80 L 448.50 641.54 C425.53,635.05 409.34,621.83 399.51,601.50 C398.09,598.58 396.93,596.59 395.97,594.50 C391.46,584.70 391.44,572.82 391.28,452.99 C391.26,440.67 391.25,427.21 391.22,412.50 C391.04,300.22 391.29,243.28 391.99,238.71 C395.22,217.64 407.74,196.88 424.95,184.04 C431.88,178.87 448.57,170.69 457.00,168.35 C463.12,166.64 472.66,166.52 622.00,166.23 C728.87,166.02 783.12,166.26 788.54,166.97 C805.43,169.18 820.17,175.60 834.11,186.83 C850.83,200.30 861.71,219.24 864.94,240.50 C865.87,246.61 866.07,287.70 865.80,414.50 C865.77,428.11 865.75,440.63 865.73,452.18 C865.50,574.60 865.47,586.20 860.97,595.67 C860.08,597.55 859.00,599.35 857.72,601.92 C848.88,619.56 832.84,633.60 814.00,640.18 ZM 544.00 551.69 C552.26,555.09 565.76,554.95 574.83,551.37 C578.50,549.92 583.30,547.28 585.50,545.50 C587.70,543.73 603.94,527.92 621.57,510.39 C651.27,480.86 653.80,478.07 655.82,472.66 C657.02,469.45 658.00,465.68 658.00,464.29 C658.00,464.13 658.00,463.97 657.99,463.82 C657.98,463.18 657.98,462.72 658.20,462.48 C658.76,461.88 660.76,462.61 667.73,465.17 C668.37,465.41 669.05,465.66 669.78,465.93 C697.99,476.29 731.03,476.66 760.20,466.96 C804.41,452.27 836.04,415.03 844.03,368.31 C854.84,305.09 816.16,242.21 754.43,222.63 C740.06,218.08 728.76,216.50 710.50,216.50 C667.90,216.50 633.35,232.39 608.78,263.29 C599.97,274.37 597.28,278.47 593.25,287.00 C577.99,319.32 576.92,358.01 590.42,389.27 L 590.50 389.47 C591.24,391.18 591.66,392.15 591.36,392.78 C590.97,393.62 589.32,393.87 585.50,394.51 C575.45,396.19 572.00,398.94 537.32,432.74 C497.20,471.85 493.00,477.51 493.00,492.36 C493.00,504.54 496.49,510.15 516.23,529.77 C531.76,545.20 535.58,548.22 544.00,551.69 Z" fill="rgb(254,221,29)"/>
<path d="M 0.00 418.00 L 0.00 0.00 L 627.00 0.00 L 1254.00 0.00 L 1254.00 418.00 L 1254.00 836.00 L 627.00 836.00 L 0.00 836.00 L 0.00 418.00 ZM 814.00 640.18 C832.84,633.60 848.88,619.56 857.72,601.92 C866.08,585.21 865.40,601.10 865.80,414.50 C866.07,287.70 865.87,246.61 864.94,240.50 C861.71,219.24 850.83,200.30 834.11,186.83 C820.17,175.60 805.43,169.18 788.54,166.97 C783.12,166.26 728.87,166.02 622.00,166.23 C472.66,166.52 463.12,166.64 457.00,168.35 C448.57,170.69 431.88,178.87 424.95,184.04 C407.74,196.88 395.22,217.64 391.99,238.71 C391.29,243.28 391.04,300.22 391.22,412.50 C391.54,600.82 390.77,583.45 399.51,601.50 C409.34,621.83 425.53,635.05 448.50,641.54 L 456.50 643.80 L 630.50 643.65 L 804.50 643.50 L 814.00 640.18 ZM 544.00 551.69 C535.58,548.22 531.76,545.20 516.23,529.77 C496.49,510.15 493.00,504.54 493.00,492.36 C493.00,477.51 497.20,471.85 537.32,432.74 C572.00,398.94 575.45,396.19 585.50,394.51 C592.30,393.38 592.22,393.46 590.42,389.27 C576.92,358.01 577.99,319.32 593.25,287.00 C597.28,278.47 599.97,274.37 608.78,263.29 C633.35,232.39 667.90,216.50 710.50,216.50 C728.76,216.50 740.06,218.08 754.43,222.63 C816.16,242.21 854.84,305.09 844.03,368.31 C836.04,415.03 804.41,452.27 760.20,466.96 C731.03,476.66 697.99,476.29 669.78,465.93 C657.23,461.32 658.00,461.43 658.00,464.29 C658.00,465.68 657.02,469.45 655.82,472.66 C653.80,478.07 651.27,480.86 621.57,510.39 C603.94,527.92 587.70,543.73 585.50,545.50 C583.30,547.28 578.50,549.92 574.83,551.37 C565.76,554.95 552.26,555.09 544.00,551.69 ZM 570.50 537.70 C574.53,535.99 581.68,529.50 607.50,504.13 C625.10,486.83 640.28,471.52 641.22,470.11 C644.16,465.72 644.48,459.86 642.07,454.42 L 639.95 449.62 L 644.67 444.82 C649.08,440.35 649.54,440.12 651.45,441.50 C666.39,452.26 692.98,460.00 714.93,460.00 C726.39,459.99 744.78,457.05 754.68,453.64 C796.10,439.36 826.23,401.85 831.09,358.50 C832.24,348.19 831.69,332.49 829.85,323.51 C821.93,284.82 793.66,250.95 757.61,236.93 C742.70,231.14 735.92,229.86 716.98,229.29 C701.72,228.83 698.00,229.04 688.11,230.93 C681.87,232.13 674.01,234.14 670.63,235.41 C631.97,249.97 603.99,282.53 596.44,321.74 C594.24,333.15 594.24,350.92 596.43,362.50 C598.42,373.05 604.37,388.54 609.51,396.58 C611.51,399.70 612.77,402.59 612.32,402.99 C611.87,403.39 609.60,405.40 607.27,407.46 L 603.04 411.20 L 598.44 408.97 C593.21,406.44 587.40,406.70 581.59,409.73 C579.73,410.70 563.10,426.38 544.64,444.56 C519.72,469.11 510.55,478.76 509.06,482.06 C506.48,487.75 506.41,496.14 508.90,501.50 C511.29,506.63 539.01,534.01 544.73,536.89 C553.70,541.41 561.20,541.64 570.50,537.70 ZM 672.00 278.32 C672.00,277.16 689.54,269.76 696.41,268.01 C705.85,265.61 725.52,265.37 733.50,267.56 L 738.50 268.93 L 732.00 268.22 C721.74,267.09 702.09,267.69 696.00,269.33 C689.76,271.01 687.25,272.05 681.35,275.38 C677.53,277.54 672.00,279.28 672.00,278.32 Z" fill="rgb(254,254,254)"/>
</g>
</svg>